<svg width="284" height="327" xmlns="http://www.w3.org/2000/svg">
 <!-- Created with SVG Editor - http://github.com/mzalive/SVG Editor/ -->

 <g>
  <title>background</title>
  <rect x="-1" y="-1" width="286" height="329" id="canvas_background" fill="#fff"/>
  <g id="canvasGrid" display="none">
   <rect id="svg_2" width="100%" height="100%" x="0" y="0" stroke-width="0" fill="url(#gridpattern)"/>
  </g>
 </g>
 <g>
  <title>Layer 1</title>
  <path fill="#9dd9f3" stroke="#f671b5" stroke-width="1.5" d="m260.2561,156.47729c-11.45455,-2.78798 -23.37645,-4.62363 -33.05703,-5.1205l-1.70721,-0.08281c0.39103,-1.24217 0.6867,-2.08409 0.78207,-2.20831c0.20983,-0.24843 0.3815,-1.29738 0.40058,-2.31872c0,-0.56588 0.17167,-2.40153 0.43872,-4.83066c2.62282,0.13802 6.10401,0.24843 9.89995,0.28984c14.65916,0.16562 29.99549,1.87706 40.51537,4.56843c6.26614,1.60102 8.33579,1.54581 3.71009,-0.08281c-4.68292,-1.64243 -18.56954,-4.05776 -29.63306,-5.10671c-7.42973,-0.7315 -18.08314,-1.00754 -24.35882,-0.85572c0.18121,-1.57341 0.39104,-3.32626 0.6104,-5.1205c0.88699,-6.94236 1.18265,-13.92612 1.20173,-27.82464c0.01907,-21.55857 -0.78208,-27.49339 -5.63668,-41.75076c-1.97426,-5.8244 -4.20604,-10.76548 -6.90516,-15.2373c2.35577,-10.06159 2.29854,-25.64394 -0.14306,-39.30782c-2.01242,-11.20714 -2.71819,-11.92484 -9.73781,-9.77175c-5.95141,1.83566 -10.72016,4.3338 -16.83371,8.79181c-2.88987,2.1117 -6.87655,5.39655 -9.76642,7.97751c-7.53464,-3.83693 -15.32679,-6.37648 -23.6435,-7.74287c-8.43117,-1.38019 -29.09897,-0.60729 -36.43332,1.35258c-7.17221,1.91847 -13.62911,4.26479 -19.47561,7.05278c-2.91848,-2.60856 -7.15313,-6.12805 -10.17653,-8.33635c-6.14216,-4.47182 -10.91092,-6.95616 -16.8814,-8.79181c-7.00054,-2.1669 -7.72539,-1.4354 -9.72827,9.77174c-2.47975,13.84331 -2.49883,29.6879 -0.04769,39.72188c0.28613,1.14556 0.4578,1.95987 0.52457,2.59476c-9.9381,18.1081 -13.18085,38.36929 -11.02537,66.64939c0.56271,7.37022 1.43063,14.13315 2.64189,20.33021c-6.34245,-0.05521 -15.36494,0.27603 -21.87906,0.88332c-11.0826,1.06274 -24.96922,3.45047 -29.65214,5.0929c-4.61616,1.62862 -2.5656,1.68383 3.71009,0.09661c10.51988,-2.67757 25.86575,-4.41661 40.51537,-4.56843c2.76588,-0.0138 5.35055,-0.09661 7.57279,-0.17942c0.66763,3.27105 1.43063,6.39028 2.29854,9.35769l-0.06676,0.0138c-9.68058,0.48307 -21.59294,2.31872 -33.0475,5.1067c-8.5933,2.08409 -21.2782,6.25227 -22.75651,7.45303c-1.55462,1.25597 -0.28613,0.97994 6.37106,-1.463c12.14126,-4.44421 27.92585,-7.85328 47.47776,-10.22721l2.18409,-0.27604c4.19651,14.10555 10.66294,24.87103 19.79988,33.26259c5.58899,5.14811 14.54472,10.43424 19.05596,11.26235c1.23988,0.22083 4.84506,1.29738 8.01152,2.37393c3.17599,1.07655 9.38491,2.69137 13.79124,3.6161l0.10492,0c-0.08584,0.08281 -0.16214,0.13802 -0.23844,0.22083c-5.34101,4.01635 -8.81267,10.26861 -11.14936,20.10937c-1.04912,0.45546 -2.35576,1.07655 -3.76732,1.78045c-5.04534,2.48434 -7.01007,2.99501 -12.12218,3.05022c-5.30286,0.05521 -6.56181,-0.27604 -9.72827,-2.42914c-4.60662,-3.10543 -8.8985,-8.81941 -11.75976,-15.63755c-4.77829,-11.40038 -13.03778,-19.46069 -19.92387,-19.46069c-5.88465,0 -7.00053,3.45048 -2.7468,8.48817c6.40921,7.57725 11.19704,15.30631 13.16177,21.21353c1.10635,3.31246 2.80403,8.43296 3.78639,11.37277c1.03959,3.13303 3.26184,7.38401 5.37916,10.32382c4.97859,6.87335 9.7855,10.1582 16.95771,11.70401c4.80691,1.02135 5.98956,1.02135 11.66438,-0.0276c2.73727,-0.48307 5.04535,-1.04894 7.11499,-1.75284c0,3.36766 0,7.246 0,11.80063c0,24.37416 -0.20029,32.21364 -0.86792,34.50476c-1.25895,4.3614 -4.08205,8.84702 -6.82886,10.86209c-2.73726,2.01508 -3.5861,4.23719 -2.43206,6.27987c0.63901,1.10415 1.86935,1.29738 5.99909,0.91093c7.83984,-0.7039 13.38114,-4.89968 16.20424,-12.2975c0.90607,-2.37393 1.11589,-7.14939 1.40202,-31.99281c0.3052,-26.95512 0.43873,-29.54988 1.64999,-33.40061c0.73439,-2.29111 1.79305,-4.77546 2.38438,-5.45175c0.9919,-1.18696 1.05866,1.15936 1.05866,33.40061c-0.00954,35.5813 -0.25751,39.87369 -2.71819,46.71944c-0.55318,1.55961 -1.6023,3.58849 -2.33669,4.55463c-1.28757,1.69763 -1.8312,6.04523 -0.93468,7.35641c1.47832,2.12549 8.88897,-1.21457 12.93287,-5.8244c6.88609,-7.89469 7.70632,-14.42299 7.76354,-61.57029l0.02862,-27.65902l2.08871,0.28984l2.08872,0.27604l0.34335,36.17479c0.39104,40.72942 0.44826,41.3229 5.2361,49.18998c2.71819,4.44422 5.45546,6.90095 9.90948,8.81942c5.96094,2.59476 7.754,-1.4078 3.74824,-8.35015c-4.35864,-7.54964 -4.56847,-10.43424 -4.33003,-55.12481c0.16214,-28.65275 0.16214,-28.65275 1.44016,-26.98272c2.68958,3.53329 3.20461,9.33009 3.20461,36.2024c0,33.373 0.65809,36.54744 8.80313,42.37184c3.80547,2.69137 4.87367,3.02262 9.74734,3.05022c5.18841,0.02761 5.50315,-0.08281 5.6939,-2.04268c0.16213,-1.58722 -0.47688,-2.66377 -2.89941,-4.80306c-3.17599,-2.82939 -5.37916,-6.44549 -6.7621,-11.00012c-0.52456,-1.75284 -0.87745,-13.23602 -1.11589,-36.87869c-0.34335,-33.02795 -0.41965,-34.53236 -1.84074,-39.70807c-1.91704,-6.95616 -4.84506,-12.44932 -8.55515,-16.09302c-0.96329,-0.91093 -1.92658,-1.67003 -3.17599,-2.23591c1.53554,-0.22083 3.02339,-0.45546 4.46355,-0.7591c14.99298,-2.8846 22.91866,-5.28613 29.28018,-8.84702c13.45744,-7.49444 22.55623,-19.94375 27.48712,-37.59639c0.43873,-1.57341 0.87745,-3.06402 1.24942,-4.26479l3.79593,0.45547c19.56145,2.38773 35.34604,5.7968 47.4873,10.25481c6.65718,2.44294 7.92567,2.73278 6.37106,1.4492c-1.44971,-1.17316 -14.1346,-5.32753 -22.71837,-7.41162l0,-0.00001zm-57.35862,-0.42785c-2.22224,7.06657 -8.42163,16.14822 -13.42883,19.70911c-4.94043,3.53329 -12.68489,6.22466 -21.45941,7.50824c-5.9991,0.88332 -39.45671,1.14556 -44.97893,0.35885c-18.28342,-2.59476 -28.52671,-7.68766 -36.08042,-17.88727c-7.15314,-9.68894 -10.49127,-22.84215 -9.90948,-39.03178c0.37196,-10.1306 2.0601,-16.49328 6.47597,-24.22234c4.01529,-7.03897 8.24041,-11.38657 13.219,-13.59488c4.16789,-1.84945 16.9577,-2.01508 34.15384,-0.41406c7.60141,0.7039 13.88663,0.7039 21.47849,0c17.98776,-1.64242 29.99549,-1.463 34.43044,0.52448c6.97192,3.11923 13.32391,11.51078 17.13892,22.69033c1.71675,4.99628 2.05056,7.12178 2.29854,14.83704c0.34335,10.62747 -0.92514,21.91742 -3.33813,29.52227l0,0.00001zm-90.70179,-45.6291c-10.23375,-2.59476 -16.08025,22.75934 -8.23087,35.70553c3.72917,6.14184 7.03868,7.14938 11.17797,3.42287c3.83408,-3.46428 5.91326,-9.93737 5.91326,-18.32893c0,-11.19334 -3.51935,-19.41928 -8.86036,-20.79947zm62.11785,1.51821c-10.23375,-2.59476 -16.08979,22.73174 -8.24041,35.69172c3.7387,6.14185 7.03868,7.16319 11.1875,3.40907c3.82455,-3.45047 5.91326,-9.93737 5.91326,-18.32892c0,-11.15194 -3.51934,-19.40548 -8.86035,-20.77187zm-27.52527,49.85248c-0.21936,1.02134 -1.28757,2.53955 -2.36531,3.35386c-2.72773,2.02888 -4.69245,1.32498 -7.57278,-2.47054c-1.78352,-2.33252 -2.59421,-3.56089 -3.13785,-1.11796c-0.50549,2.26352 2.67051,6.80434 5.12165,8.19834c2.25085,1.29737 3.86269,1.33878 6.3043,-0.13802c2.42253,-1.46301 4.53986,-5.39655 4.53986,-7.9499c0,-2.37393 -2.35577,-2.26351 -2.88987,0.12422zm-3.0234,-7.9361c1.55462,-1.98747 1.90751,-6.07284 0.41966,-8.23973s-4.51125,-1.83566 -5.6939,0.59348c-1.3734,2.84319 -0.63902,5.01009 0.34335,7.31501c1.526,1.71143 3.57657,2.05648 4.9309,0.33124l-0.00001,0z" id="svg_1"/>
 </g>
</svg>